<svg width="508" height="233" fill="none" xmlns="http://www.w3.org/2000/svg"><path fill="#FAF9F8" d="M0 0h508v233H0z"/><rect x="25" y="69" width="233" height="113" rx="8" fill="#fff"/><path d="M43 99c0-6.627 5.373-12 12-12h40c6.627 0 12 5.373 12 12s-5.373 12-12 12H55c-6.627 0-12-5.373-12-12z" fill="#F6F4F2"/><path fill-rule="evenodd" clip-rule="evenodd" d="M60.777 93.75h-5.554a1.752 1.752 0 00-1.566.97v.001l-2.007 4.007a.58.58 0 00-.067.272v3.5a1.749 1.749 0 001.75 1.75h9.334a1.747 1.747 0 001.75-1.75V99v-.022a.581.581 0 00-.067-.25l-2.007-4.007a1.751 1.751 0 00-1.566-.971zm2.112 4.667l-1.59-3.175v-.002a.584.584 0 00-.523-.323h-5.552a.583.583 0 00-.522.323l-.523-.26.522.262-1.59 3.175h9.778zM52.75 99.583v2.917a.581.581 0 00.583.583h9.334a.581.581 0 00.583-.583v-2.917h-10.5z" fill="#000"/><path d="M81.003 94.273h-1.304v6.409h-.081l-4.44-6.41h-1.22V103h1.318v-6.4h.08l4.437 6.4h1.21v-8.727zM83.66 103l.801-2.31h3.41l.796 2.31h1.398l-3.14-8.727h-1.522L82.264 103h1.397zm1.184-3.418l1.287-3.724h.069l1.287 3.724h-2.642zm11.17-3.017h1.27c-.038-1.397-1.274-2.412-3.046-2.412-1.752 0-3.094 1.002-3.094 2.506 0 1.215.87 1.926 2.271 2.305l1.031.282c.934.247 1.654.554 1.654 1.329 0 .853-.814 1.415-1.935 1.415-1.014 0-1.858-.452-1.934-1.402H90.91c.086 1.581 1.309 2.557 3.265 2.557 2.05 0 3.23-1.078 3.23-2.557 0-1.572-1.402-2.182-2.51-2.454l-.852-.222c-.682-.175-1.59-.494-1.586-1.33 0-.741.678-1.29 1.752-1.29 1.001 0 1.713.468 1.807 1.273z" fill="#242424"/><path d="M25.528 193.406h2.72V201h1.312v-7.594h2.723v-1.133h-6.755v1.133zm9.16 7.739c1.081 0 1.69-.55 1.934-1.04h.05V201h1.245v-4.347c0-1.904-1.5-2.284-2.54-2.284-1.184 0-2.275.478-2.701 1.671l1.197.272c.188-.464.665-.911 1.522-.911.822 0 1.244.43 1.244 1.171v.03c0 .465-.477.456-1.654.593-1.24.144-2.51.468-2.51 1.956 0 1.287.968 1.994 2.212 1.994zm.276-1.023c-.72 0-1.24-.324-1.24-.954 0-.682.605-.925 1.342-1.023.414-.056 1.394-.166 1.577-.35v.844c0 .776-.618 1.483-1.679 1.483zm4.65.878h1.275v-6.545h-1.275V201zm.644-7.555c.439 0 .805-.341.805-.759s-.366-.763-.805-.763c-.443 0-.806.345-.806.763 0 .418.363.759.806.759zm3.619-1.172h-1.274V201h1.274v-8.727zm6.619 3.78c-.265-1.019-1.061-1.684-2.476-1.684-1.479 0-2.527.78-2.527 1.939 0 .929.562 1.547 1.79 1.82l1.108.243c.63.14.924.422.924.831 0 .507-.54.903-1.376.903-.763 0-1.253-.328-1.406-.971l-1.232.187c.213 1.159 1.176 1.811 2.646 1.811 1.581 0 2.677-.839 2.677-2.024 0-.925-.589-1.496-1.79-1.773l-1.04-.238c-.72-.171-1.031-.414-1.027-.857-.004-.503.541-.861 1.266-.861.792 0 1.159.439 1.308.878l1.155-.204zm4.286 5.079c1.547 0 2.548-.929 2.689-2.203h-1.24c-.163.707-.712 1.125-1.44 1.125-1.079 0-1.774-.899-1.774-2.327 0-1.402.708-2.284 1.773-2.284.81 0 1.304.512 1.44 1.125h1.24c-.136-1.321-1.214-2.199-2.701-2.199-1.845 0-3.038 1.39-3.038 3.388 0 1.973 1.15 3.375 3.05 3.375zm5.956.013c1.082 0 1.692-.55 1.935-1.04h.05V201h1.245v-4.347c0-1.904-1.5-2.284-2.54-2.284-1.184 0-2.275.478-2.701 1.671l1.197.272c.188-.464.665-.911 1.521-.911.823 0 1.245.43 1.245 1.171v.03c0 .465-.478.456-1.654.593-1.24.144-2.51.468-2.51 1.956 0 1.287.968 1.994 2.212 1.994zm.277-1.023c-.72 0-1.24-.324-1.24-.954 0-.682.605-.925 1.342-1.023.414-.056 1.394-.166 1.577-.35v.844c0 .776-.618 1.483-1.68 1.483zm5.924-7.849h-1.274V201h1.274v-8.727zm4.535 8.859c1.428 0 2.438-.703 2.728-1.768l-1.206-.218c-.23.618-.784.934-1.509.934-1.09 0-1.824-.708-1.858-1.969h4.654v-.452c0-2.365-1.415-3.29-2.898-3.29-1.824 0-3.026 1.39-3.026 3.401 0 2.033 1.185 3.362 3.115 3.362zm-1.84-3.976c.05-.929.724-1.734 1.76-1.734.988 0 1.636.733 1.64 1.734h-3.4zm11.995 3.976c1.845 0 3.051-1.351 3.051-3.375 0-2.037-1.206-3.388-3.05-3.388-1.846 0-3.052 1.351-3.052 3.388 0 2.024 1.206 3.375 3.051 3.375zm.004-1.07c-1.205 0-1.768-1.052-1.768-2.309 0-1.253.563-2.318 1.769-2.318 1.197 0 1.76 1.065 1.76 2.318 0 1.257-.563 2.309-1.76 2.309zm9.835-5.607H90.1l-1.654 5.036h-.068l-1.657-5.036h-1.368L87.73 201h1.363l2.374-6.545zm3.784 6.677c1.427 0 2.437-.703 2.727-1.768l-1.206-.218c-.23.618-.784.934-1.508.934-1.091 0-1.824-.708-1.858-1.969h4.653v-.452c0-2.365-1.415-3.29-2.898-3.29-1.824 0-3.025 1.39-3.025 3.401 0 2.033 1.184 3.362 3.115 3.362zm-1.841-3.976c.051-.929.724-1.734 1.76-1.734.988 0 1.636.733 1.64 1.734h-3.4zM99.474 201h1.274v-3.997c0-.857.66-1.475 1.564-1.475.264 0 .562.047.665.077v-1.219a5.218 5.218 0 00-.542-.029c-.767 0-1.423.434-1.662 1.137h-.068v-1.039h-1.231V201zm5.879-8.727h-1.274V201h1.274v-8.727zm3.619 8.872c1.083 0 1.692-.55 1.935-1.04h.051V201h1.244v-4.347c0-1.904-1.5-2.284-2.539-2.284-1.185 0-2.276.478-2.702 1.671l1.197.272c.188-.464.665-.911 1.522-.911.822 0 1.244.43 1.244 1.171v.03c0 .465-.477.456-1.653.593-1.24.144-2.51.468-2.51 1.956 0 1.287.967 1.994 2.211 1.994zm.277-1.023c-.72 0-1.24-.324-1.24-.954 0-.682.605-.925 1.343-1.023.413-.056 1.393-.166 1.576-.35v.844c0 .776-.618 1.483-1.679 1.483zm5.222 3.333c1.052 0 1.717-.55 2.096-1.581l2.706-7.407-1.376-.012-1.658 5.079h-.068l-1.658-5.079h-1.363l2.394 6.63-.157.435c-.324.869-.78.942-1.479.75l-.307 1.044c.154.068.486.141.87.141zm10.453-6.341c0-1.044.639-1.641 1.525-1.641.865 0 1.389.567 1.389 1.517V201h1.275v-4.163c0-1.62-.891-2.468-2.229-2.468-.984 0-1.628.456-1.931 1.151h-.08v-1.065h-1.223V201h1.274v-3.886zm8.718 4.018c1.428 0 2.438-.703 2.728-1.768l-1.206-.218c-.23.618-.784.934-1.509.934-1.091 0-1.824-.708-1.858-1.969h4.654v-.452c0-2.365-1.415-3.29-2.898-3.29-1.824 0-3.026 1.39-3.026 3.401 0 2.033 1.185 3.362 3.115 3.362zm-1.841-3.976c.052-.929.725-1.734 1.76-1.734.989 0 1.637.733 1.641 1.734h-3.401zm9.119-2.701h-1.343v-1.569h-1.274v1.569h-.959v1.022h.959v3.865c-.004 1.189.904 1.765 1.909 1.743.405-.004.678-.081.827-.136l-.23-1.053c-.085.017-.243.056-.447.056-.414 0-.785-.137-.785-.874v-3.601h1.343v-1.022zm2.828 6.545h1.296l1.329-4.726h.098l1.33 4.726h1.299l1.922-6.545h-1.316l-1.275 4.785h-.063l-1.279-4.785h-1.317l-1.287 4.806h-.063l-1.283-4.806h-1.317l1.926 6.545zm11.041.132c1.846 0 3.052-1.351 3.052-3.375 0-2.037-1.206-3.388-3.052-3.388-1.845 0-3.051 1.351-3.051 3.388 0 2.024 1.206 3.375 3.051 3.375zm.005-1.07c-1.206 0-1.769-1.052-1.769-2.309 0-1.253.563-2.318 1.769-2.318 1.197 0 1.76 1.065 1.76 2.318 0 1.257-.563 2.309-1.76 2.309zm4.469.938h1.274v-3.997c0-.857.66-1.475 1.564-1.475.264 0 .562.047.665.077v-1.219a5.218 5.218 0 00-.542-.029c-.767 0-1.423.434-1.662 1.137h-.068v-1.039h-1.231V201zm4.605 0h1.274v-2.322l.635-.635 2.225 2.957h1.564l-2.83-3.737 2.651-2.808h-1.526l-2.608 2.769h-.111v-4.951h-1.274V201z" fill="#9F9995"/><path d="M32.423 29.818v6.498c0 1.278-.89 2.192-2.287 2.192-1.402 0-2.287-.914-2.287-2.192v-6.498h-1.845v6.652c0 2.188 1.64 3.684 4.132 3.684 2.48 0 4.131-1.496 4.131-3.684v-6.652h-1.844zm9.805 4.564c-.249-1.292-1.283-2.118-3.073-2.118-1.84 0-3.092.905-3.087 2.317-.005 1.114.681 1.85 2.148 2.153l1.302.273c.701.154 1.03.438 1.03.87 0 .522-.567.915-1.422.915-.826 0-1.363-.358-1.517-1.044l-1.755.169c.224 1.402 1.402 2.232 3.276 2.232 1.91 0 3.257-.99 3.262-2.436-.005-1.089-.706-1.755-2.148-2.068l-1.302-.279c-.776-.173-1.084-.442-1.08-.885-.004-.517.567-.875 1.318-.875.83 0 1.268.453 1.407.955l1.64-.179zM43.876 40h1.8v-7.636h-1.8V40zm.905-8.72c.572 0 1.039-.438 1.039-.975 0-.541-.468-.979-1.04-.979-.576 0-1.043.438-1.043.98 0 .536.467.974 1.044.974zm4.545 4.246c0-1.104.666-1.74 1.616-1.74.93 0 1.486.611 1.486 1.63V40h1.8v-4.862c.005-1.83-1.04-2.874-2.615-2.874-1.144 0-1.93.547-2.277 1.397h-.09v-1.297h-1.72V40h1.8v-4.474zm10.053 7.497c2.063 0 3.584-.945 3.584-2.899v-7.76h-1.775v1.262h-.1c-.273-.551-.844-1.362-2.192-1.362-1.765 0-3.152 1.382-3.152 3.893 0 2.49 1.387 3.734 3.147 3.734 1.308 0 1.92-.701 2.198-1.263h.09v1.447c0 1.123-.747 1.585-1.77 1.585-1.084 0-1.562-.512-1.78-.959l-1.621.393c.328 1.069 1.427 1.929 3.37 1.929zm.015-4.544c-1.189 0-1.815-.925-1.815-2.332 0-1.387.616-2.406 1.815-2.406 1.158 0 1.794.96 1.794 2.406 0 1.457-.646 2.332-1.794 2.332zm11.084 1.675c1.198 0 1.914-.562 2.242-1.203h.06V40h1.73v-5.11c0-2.02-1.646-2.626-3.103-2.626-1.605 0-2.838.716-3.236 2.108l1.68.239c.18-.522.686-.97 1.566-.97.835 0 1.293.428 1.293 1.179v.03c0 .517-.542.541-1.89.685-1.48.16-2.898.602-2.898 2.322 0 1.502 1.099 2.297 2.556 2.297zm.467-1.322c-.75 0-1.288-.343-1.288-1.005 0-.69.602-.979 1.407-1.093.473-.065 1.417-.184 1.65-.373v.9c0 .85-.685 1.57-1.769 1.57zm7.174-3.306c0-1.104.666-1.74 1.616-1.74.93 0 1.486.611 1.486 1.63V40h1.8v-4.862c.005-1.83-1.04-2.874-2.615-2.874-1.144 0-1.93.547-2.277 1.397h-.09v-1.297h-1.72V40h1.8v-4.474zm13.585 4.623c1.78 0 3.003-.87 3.32-2.197l-1.68-.19c-.243.647-.84.985-1.615.985-1.164 0-1.934-.766-1.95-2.073h5.32v-.552c0-2.68-1.61-3.858-3.49-3.858-2.187 0-3.614 1.606-3.614 3.963 0 2.396 1.407 3.922 3.709 3.922zm-1.92-4.688c.055-.974.776-1.795 1.85-1.795 1.034 0 1.73.756 1.74 1.795h-3.59zm8.16-3.097h-1.91l2.267 3.818L95.974 40h1.91l1.6-2.75L101.1 40h1.894l-2.341-3.818 2.302-3.818h-1.905l-1.566 2.819-1.54-2.82zM104.346 40h1.799v-7.636h-1.799V40zm.904-8.72c.572 0 1.039-.438 1.039-.975 0-.541-.467-.979-1.039-.979-.576 0-1.044.438-1.044.98 0 .536.468.974 1.044.974zm6.559 1.084h-1.506v-1.83h-1.8v1.83h-1.084v1.392h1.084V38c-.01 1.437 1.034 2.143 2.386 2.103a3.602 3.602 0 001.059-.179l-.303-1.406c-.099.024-.303.07-.527.07-.452 0-.815-.16-.815-.886v-3.947h1.506v-1.392zm6.778 3.162c0-1.104.666-1.74 1.615-1.74.93 0 1.487.611 1.487 1.63V40h1.8v-4.862c.005-1.83-1.039-2.874-2.615-2.874-1.144 0-1.929.547-2.277 1.397h-.09v-1.297h-1.72V40h1.8v-4.474zm10.062 4.623c2.237 0 3.659-1.576 3.659-3.937 0-2.367-1.422-3.948-3.659-3.948s-3.659 1.581-3.659 3.948c0 2.361 1.422 3.937 3.659 3.937zm.01-1.442c-1.238 0-1.844-1.103-1.844-2.5s.606-2.516 1.844-2.516c1.218 0 1.825 1.119 1.825 2.516s-.607 2.5-1.825 2.5zm8.011 1.427c1.312 0 1.904-.78 2.187-1.337h.11V40h1.769V29.818h-1.804v3.808h-.075c-.273-.551-.835-1.362-2.182-1.362-1.765 0-3.152 1.382-3.152 3.928 0 2.515 1.347 3.942 3.147 3.942zm.502-1.476c-1.188 0-1.815-1.044-1.815-2.476 0-1.422.617-2.441 1.815-2.441 1.158 0 1.795.96 1.795 2.44 0 1.482-.647 2.477-1.795 2.477zm8.863 1.491c1.78 0 3.003-.87 3.321-2.197l-1.681-.19c-.243.647-.84.985-1.615.985-1.164 0-1.934-.766-1.949-2.073h5.319v-.552c0-2.68-1.61-3.858-3.49-3.858-2.187 0-3.614 1.606-3.614 3.963 0 2.396 1.407 3.922 3.709 3.922zm-1.919-4.688c.055-.974.775-1.795 1.849-1.795 1.034 0 1.73.756 1.74 1.795h-3.589z" fill="#000"/><path d="M43 150c0-6.627 5.373-12 12-12h52c6.627 0 12 5.373 12 12s-5.373 12-12 12H55c-6.627 0-12-5.373-12-12z" fill="#F6F4F2"/><path d="M60.917 144.167h-5.834c-.644 0-1.166.522-1.166 1.166v9.334c0 .644.522 1.166 1.166 1.166h5.834c.644 0 1.166-.522 1.166-1.166v-9.334c0-.644-.522-1.166-1.166-1.166z" stroke="#242424" stroke-width="1.25" stroke-linecap="round" stroke-linejoin="round"/><path d="M58 153.5h.006" stroke="#242424" stroke-width="1.5" stroke-linecap="round"/><path d="M76.307 154.128c1.193 0 1.662-.729 1.892-1.146h.106V154h1.245v-8.727h-1.274v3.243h-.077c-.23-.405-.665-1.147-1.884-1.147-1.58 0-2.744 1.249-2.744 3.371 0 2.118 1.146 3.388 2.736 3.388zm.281-1.087c-1.138 0-1.73-1.001-1.73-2.314 0-1.299.58-2.275 1.73-2.275 1.112 0 1.709.907 1.709 2.275 0 1.377-.61 2.314-1.709 2.314zm7.601 1.091c1.428 0 2.438-.703 2.728-1.768l-1.206-.218c-.23.618-.784.934-1.509.934-1.09 0-1.824-.708-1.858-1.969h4.654v-.452c0-2.365-1.415-3.29-2.898-3.29-1.824 0-3.026 1.39-3.026 3.401 0 2.033 1.185 3.362 3.115 3.362zm-1.84-3.976c.05-.929.724-1.734 1.76-1.734.988 0 1.636.733 1.64 1.734h-3.4zm11.462-2.701h-1.368l-1.653 5.036h-.068l-1.658-5.036h-1.368L90.074 154h1.364l2.373-6.545zM95.01 154h1.274v-6.545h-1.274V154zm.643-7.555c.44 0 .806-.341.806-.759s-.367-.763-.806-.763c-.443 0-.805.345-.805.763 0 .418.362.759.805.759zm5.102 7.687c1.547 0 2.549-.929 2.689-2.203h-1.24c-.162.707-.712 1.125-1.44 1.125-1.078 0-1.773-.899-1.773-2.327 0-1.402.707-2.284 1.773-2.284.809 0 1.304.512 1.44 1.125h1.24c-.136-1.321-1.214-2.199-2.702-2.199-1.845 0-3.038 1.39-3.038 3.388 0 1.973 1.15 3.375 3.051 3.375zm6.873 0c1.427 0 2.437-.703 2.727-1.768l-1.206-.218c-.23.618-.784.934-1.508.934-1.091 0-1.824-.708-1.858-1.969h4.653v-.452c0-2.365-1.415-3.29-2.898-3.29-1.824 0-3.025 1.39-3.025 3.401 0 2.033 1.184 3.362 3.115 3.362zm-1.841-3.976c.051-.929.724-1.734 1.76-1.734.988 0 1.636.733 1.64 1.734h-3.4z" fill="#242424"/><path d="M149 99c0-6.627 5.373-12 12-12h51c6.627 0 12 5.373 12 12s-5.373 12-12 12h-51c-6.627 0-12-5.373-12-12z" fill="#F6F4F2"/><g clip-path="url(#clip0)" fill-rule="evenodd" clip-rule="evenodd" fill="#000"><path d="M159.333 94.333a.583.583 0 00-.583.584v5.833c0 .322.261.583.583.583h9.334a.583.583 0 00.583-.583v-5.833a.583.583 0 00-.583-.584h-9.334zm-1.75.584c0-.967.784-1.75 1.75-1.75h9.334c.966 0 1.75.783 1.75 1.75v5.833a1.75 1.75 0 01-1.75 1.75h-9.334a1.75 1.75 0 01-1.75-1.75v-5.833zM157 103.667c0-.322.261-.584.583-.584h12.834a.584.584 0 010 1.167h-12.834a.583.583 0 01-.583-.583z"/></g><path d="M181.131 94.273h-1.274V103h1.274v-8.727zm3.619 8.872c1.082 0 1.691-.55 1.934-1.04h.051V103h1.245v-4.347c0-1.904-1.5-2.284-2.54-2.284-1.185 0-2.276.478-2.702 1.67l1.198.273c.187-.464.664-.911 1.521-.911.822 0 1.244.43 1.244 1.171v.03c0 .465-.477.456-1.653.593-1.24.145-2.51.468-2.51 1.956 0 1.287.967 1.994 2.212 1.994zm.277-1.023c-.721 0-1.24-.324-1.24-.954 0-.682.605-.925 1.342-1.023.413-.056 1.393-.166 1.577-.35v.844c0 .776-.618 1.483-1.679 1.483zm4.65 3.333h1.274v-3.473h.077c.23.417.699 1.146 1.892 1.146 1.585 0 2.736-1.27 2.736-3.388 0-2.122-1.168-3.37-2.749-3.37-1.215 0-1.653.74-1.879 1.146h-.107v-1.062h-1.244v9.001zm1.248-5.728c0-1.368.597-2.275 1.709-2.275 1.155 0 1.735.976 1.735 2.275 0 1.313-.597 2.314-1.735 2.314-1.095 0-1.709-.937-1.709-2.314zm9.213-3.273h-1.342v-1.568h-1.274v1.569h-.959v1.022h.959v3.865c-.004 1.189.903 1.765 1.909 1.743.405-.004.678-.081.827-.136l-.23-1.053c-.086.017-.243.056-.448.056-.413 0-.784-.137-.784-.874v-3.6h1.342v-1.023zm4.097 6.678c1.845 0 3.051-1.351 3.051-3.375 0-2.037-1.206-3.388-3.051-3.388-1.845 0-3.051 1.351-3.051 3.388 0 2.024 1.206 3.375 3.051 3.375zm.004-1.07c-1.206 0-1.768-1.052-1.768-2.31 0-1.252.562-2.317 1.768-2.317 1.197 0 1.76 1.065 1.76 2.318 0 1.257-.563 2.309-1.76 2.309zm4.469 3.393h1.274v-3.473h.077c.23.417.699 1.146 1.892 1.146 1.585 0 2.736-1.27 2.736-3.388 0-2.122-1.168-3.37-2.749-3.37-1.214 0-1.653.74-1.879 1.146h-.107v-1.062h-1.244v9.001zm1.249-5.728c0-1.368.596-2.275 1.708-2.275 1.155 0 1.735.976 1.735 2.275 0 1.313-.597 2.314-1.735 2.314-1.095 0-1.708-.937-1.708-2.314z" fill="#242424"/><path d="M343 114a8 8 0 018-8h123a8 8 0 018 8v23a8 8 0 01-8 8H351a8 8 0 01-8-8v-23z" fill="#E6E4E2"/><path fill-rule="evenodd" clip-rule="evenodd" d="M360.401 124.818h2.724a11.116 11.116 0 011.824-5.257 6.143 6.143 0 00-4.548 5.257zm6.099-5.079a9.752 9.752 0 00-2.006 5.079h4.012a9.752 9.752 0 00-2.006-5.079zm2.006 6.443a9.752 9.752 0 01-2.006 5.079 9.752 9.752 0 01-2.006-5.079h4.012zm-5.381 0h-2.724a6.143 6.143 0 004.548 5.257 11.116 11.116 0 01-1.824-5.257zm4.926 5.257a11.116 11.116 0 001.824-5.257h2.724a6.143 6.143 0 01-4.548 5.257zm4.548-6.621h-2.724a11.116 11.116 0 00-1.824-5.257 6.143 6.143 0 014.548 5.257zM359 125.5a7.5 7.5 0 1115 0 7.5 7.5 0 01-15 0z" fill="#242424"/><path d="M390.246 133.523c2.063 0 3.584-.945 3.584-2.899v-7.76h-1.775v1.262h-.099c-.273-.551-.845-1.362-2.193-1.362-1.764 0-3.151 1.382-3.151 3.893 0 2.491 1.387 3.734 3.147 3.734 1.307 0 1.919-.701 2.197-1.263h.089v1.447c0 1.123-.745 1.586-1.769 1.586-1.084 0-1.562-.513-1.78-.96l-1.621.393c.328 1.069 1.427 1.929 3.371 1.929zm.015-4.544c-1.189 0-1.815-.925-1.815-2.332 0-1.387.616-2.406 1.815-2.406 1.158 0 1.794.959 1.794 2.406 0 1.457-.646 2.332-1.794 2.332zm8.745 1.67c2.237 0 3.659-1.576 3.659-3.937 0-2.367-1.422-3.948-3.659-3.948-2.238 0-3.659 1.581-3.659 3.948 0 2.361 1.421 3.937 3.659 3.937zm.01-1.442c-1.238 0-1.845-1.103-1.845-2.5s.607-2.516 1.845-2.516c1.218 0 1.824 1.119 1.824 2.516s-.606 2.5-1.824 2.5zm8.507 1.442c2.237 0 3.659-1.576 3.659-3.937 0-2.367-1.422-3.948-3.659-3.948s-3.659 1.581-3.659 3.948c0 2.361 1.422 3.937 3.659 3.937zm.01-1.442c-1.238 0-1.844-1.103-1.844-2.5s.606-2.516 1.844-2.516c1.218 0 1.825 1.119 1.825 2.516s-.607 2.5-1.825 2.5zm8.498 4.316c2.063 0 3.584-.945 3.584-2.899v-7.76h-1.774v1.262h-.1c-.273-.551-.845-1.362-2.192-1.362-1.765 0-3.152 1.382-3.152 3.893 0 2.491 1.387 3.734 3.147 3.734 1.307 0 1.919-.701 2.197-1.263h.09v1.447c0 1.123-.746 1.586-1.77 1.586-1.084 0-1.561-.513-1.78-.96l-1.621.393c.328 1.069 1.427 1.929 3.371 1.929zm.015-4.544c-1.188 0-1.815-.925-1.815-2.332 0-1.387.617-2.406 1.815-2.406 1.158 0 1.795.959 1.795 2.406 0 1.457-.647 2.332-1.795 2.332zm7.214-8.661h-1.8V130.5h1.8v-10.182zm5.231 10.331c1.78 0 3.003-.87 3.321-2.197l-1.68-.189c-.244.646-.841.984-1.616.984-1.164 0-1.934-.765-1.949-2.073h5.32v-.552c0-2.68-1.611-3.858-3.491-3.858-2.187 0-3.614 1.606-3.614 3.963 0 2.396 1.407 3.922 3.709 3.922zm-1.919-4.688c.055-.974.775-1.795 1.849-1.795 1.034 0 1.73.756 1.74 1.795h-3.589zm7.946 4.648c.586 0 1.089-.487 1.094-1.093a1.105 1.105 0 00-1.094-1.084c-.607 0-1.099.487-1.094 1.084a1.087 1.087 0 001.094 1.093zm6.283.04c1.919 0 3.142-1.138 3.271-2.759h-1.72c-.154.82-.746 1.293-1.536 1.293-1.124 0-1.85-.94-1.85-2.501 0-1.541.741-2.466 1.85-2.466.865 0 1.397.557 1.536 1.293h1.72c-.124-1.656-1.417-2.745-3.281-2.745-2.238 0-3.649 1.616-3.649 3.948 0 2.311 1.377 3.937 3.659 3.937zm8.08 0c2.237 0 3.659-1.576 3.659-3.937 0-2.367-1.422-3.948-3.659-3.948-2.238 0-3.659 1.581-3.659 3.948 0 2.361 1.421 3.937 3.659 3.937zm.01-1.442c-1.238 0-1.845-1.103-1.845-2.5s.607-2.516 1.845-2.516c1.218 0 1.824 1.119 1.824 2.516s-.606 2.5-1.824 2.5zm5.176 1.293h1.8v-4.643c0-.94.626-1.576 1.402-1.576.761 0 1.283.512 1.283 1.297v4.922h1.765v-4.763c0-.86.512-1.456 1.382-1.456.726 0 1.302.427 1.302 1.372v4.847h1.805v-5.126c0-1.705-.984-2.61-2.386-2.61-1.109 0-1.954.547-2.292 1.397h-.08c-.293-.865-1.034-1.397-2.063-1.397-1.024 0-1.79.527-2.108 1.397h-.09v-1.297h-1.72v7.636z" fill="#242424"/><path d="M147 150c0-6.627 5.373-12 12-12h61c6.627 0 12 5.373 12 12s-5.373 12-12 12h-61c-6.627 0-12-5.373-12-12z" fill="#DFE5EF"/><path fill-rule="evenodd" clip-rule="evenodd" d="M157.333 145.333a.583.583 0 00-.583.584v5.833c0 .322.261.583.583.583h9.334a.583.583 0 00.583-.583v-5.833a.583.583 0 00-.583-.584h-9.334zm5.25 8.167h4.084a1.75 1.75 0 001.75-1.75v-5.833a1.75 1.75 0 00-1.75-1.75h-9.334a1.75 1.75 0 00-1.75 1.75v5.833c0 .966.784 1.75 1.75 1.75h4.084v1.167h-1.75a.584.584 0 100 1.166h4.666a.583.583 0 100-1.166h-1.75V153.5z" fill="#385281"/><path d="M180.307 154.128c1.193 0 1.662-.729 1.892-1.146h.106V154h1.245v-8.727h-1.274v3.243h-.077c-.23-.405-.665-1.147-1.884-1.147-1.581 0-2.744 1.249-2.744 3.371 0 2.118 1.146 3.388 2.736 3.388zm.281-1.087c-1.138 0-1.73-1.001-1.73-2.314 0-1.299.58-2.275 1.73-2.275 1.112 0 1.709.907 1.709 2.275 0 1.377-.609 2.314-1.709 2.314zm7.601 1.091c1.428 0 2.438-.703 2.728-1.768l-1.206-.218c-.231.618-.785.934-1.509.934-1.091 0-1.824-.708-1.858-1.969h4.654v-.452c0-2.365-1.415-3.29-2.898-3.29-1.824 0-3.026 1.39-3.026 3.401 0 2.033 1.185 3.362 3.115 3.362zm-1.841-3.976c.052-.929.725-1.734 1.76-1.734.989 0 1.637.733 1.641 1.734h-3.401zm10.968-1.103c-.264-1.019-1.061-1.684-2.476-1.684-1.478 0-2.527.78-2.527 1.939 0 .929.563 1.547 1.79 1.82l1.108.243c.631.14.925.422.925.831 0 .507-.542.903-1.377.903-.763 0-1.253-.328-1.406-.971l-1.232.187c.214 1.159 1.177 1.811 2.647 1.811 1.581 0 2.676-.839 2.676-2.024 0-.925-.588-1.496-1.79-1.773l-1.04-.238c-.72-.171-1.031-.414-1.027-.857-.004-.503.542-.861 1.266-.861.793 0 1.159.439 1.308.878l1.155-.204zm1.529 4.947h1.274v-2.322l.635-.635 2.224 2.957h1.564l-2.829-3.737 2.65-2.808h-1.525l-2.608 2.769h-.111v-4.951h-1.274V154zm9.735-6.545h-1.342v-1.569h-1.275v1.569h-.958v1.022h.958v3.865c-.004 1.189.904 1.765 1.91 1.743.404-.004.677-.081.826-.136l-.23-1.053c-.085.017-.243.056-.447.056-.414 0-.784-.137-.784-.874v-3.601h1.342v-1.022zm4.096 6.677c1.845 0 3.051-1.351 3.051-3.375 0-2.037-1.206-3.388-3.051-3.388-1.845 0-3.051 1.351-3.051 3.388 0 2.024 1.206 3.375 3.051 3.375zm.004-1.07c-1.206 0-1.768-1.052-1.768-2.309 0-1.253.562-2.318 1.768-2.318 1.198 0 1.76 1.065 1.76 2.318 0 1.257-.562 2.309-1.76 2.309zm4.47 3.393h1.274v-3.473h.076c.23.417.699 1.146 1.892 1.146 1.586 0 2.736-1.27 2.736-3.388 0-2.122-1.167-3.371-2.748-3.371-1.215 0-1.654.742-1.88 1.147h-.106v-1.061h-1.244v9zm1.248-5.728c0-1.368.597-2.275 1.709-2.275 1.155 0 1.734.976 1.734 2.275 0 1.313-.596 2.314-1.734 2.314-1.095 0-1.709-.937-1.709-2.314z" fill="#385281"/><path d="M159 142h61v-8h-61v8zm61 16h-61v8h61v-8zm-61 0a8 8 0 01-8-8h-8c0 8.837 7.163 16 16 16v-8zm69-8a8 8 0 01-8 8v8c8.837 0 16-7.163 16-16h-8zm-8-8a8 8 0 018 8h8c0-8.837-7.163-16-16-16v8zm-61-8c-8.837 0-16 7.163-16 16h8a8 8 0 018-8v-8z" fill="#fff"/><path d="M147 150c0-6.627 5.373-12 12-12h61c6.627 0 12 5.373 12 12s-5.373 12-12 12h-61c-6.627 0-12-5.373-12-12z" fill="#DFE5EF"/><path fill-rule="evenodd" clip-rule="evenodd" d="M157.333 145.333a.583.583 0 00-.583.584v5.833c0 .322.261.583.583.583h9.334a.583.583 0 00.583-.583v-5.833a.583.583 0 00-.583-.584h-9.334zm5.25 8.167h4.084a1.75 1.75 0 001.75-1.75v-5.833a1.75 1.75 0 00-1.75-1.75h-9.334a1.75 1.75 0 00-1.75 1.75v5.833c0 .966.784 1.75 1.75 1.75h4.084v1.167h-1.75a.584.584 0 100 1.166h4.666a.583.583 0 100-1.166h-1.75V153.5z" fill="#385281"/><path d="M180.307 154.128c1.193 0 1.662-.729 1.892-1.146h.106V154h1.245v-8.727h-1.274v3.243h-.077c-.23-.405-.665-1.147-1.884-1.147-1.581 0-2.744 1.249-2.744 3.371 0 2.118 1.146 3.388 2.736 3.388zm.281-1.087c-1.138 0-1.73-1.001-1.73-2.314 0-1.299.58-2.275 1.73-2.275 1.112 0 1.709.907 1.709 2.275 0 1.377-.609 2.314-1.709 2.314zm7.601 1.091c1.428 0 2.438-.703 2.728-1.768l-1.206-.218c-.231.618-.785.934-1.509.934-1.091 0-1.824-.708-1.858-1.969h4.654v-.452c0-2.365-1.415-3.29-2.898-3.29-1.824 0-3.026 1.39-3.026 3.401 0 2.033 1.185 3.362 3.115 3.362zm-1.841-3.976c.052-.929.725-1.734 1.76-1.734.989 0 1.637.733 1.641 1.734h-3.401zm10.968-1.103c-.264-1.019-1.061-1.684-2.476-1.684-1.478 0-2.527.78-2.527 1.939 0 .929.563 1.547 1.79 1.82l1.108.243c.631.14.925.422.925.831 0 .507-.542.903-1.377.903-.763 0-1.253-.328-1.406-.971l-1.232.187c.214 1.159 1.177 1.811 2.647 1.811 1.581 0 2.676-.839 2.676-2.024 0-.925-.588-1.496-1.79-1.773l-1.04-.238c-.72-.171-1.031-.414-1.027-.857-.004-.503.542-.861 1.266-.861.793 0 1.159.439 1.308.878l1.155-.204zm1.529 4.947h1.274v-2.322l.635-.635 2.224 2.957h1.564l-2.829-3.737 2.65-2.808h-1.525l-2.608 2.769h-.111v-4.951h-1.274V154zm9.735-6.545h-1.342v-1.569h-1.275v1.569h-.958v1.022h.958v3.865c-.004 1.189.904 1.765 1.91 1.743.404-.004.677-.081.826-.136l-.23-1.053c-.085.017-.243.056-.447.056-.414 0-.784-.137-.784-.874v-3.601h1.342v-1.022zm4.096 6.677c1.845 0 3.051-1.351 3.051-3.375 0-2.037-1.206-3.388-3.051-3.388-1.845 0-3.051 1.351-3.051 3.388 0 2.024 1.206 3.375 3.051 3.375zm.004-1.07c-1.206 0-1.768-1.052-1.768-2.309 0-1.253.562-2.318 1.768-2.318 1.198 0 1.76 1.065 1.76 2.318 0 1.257-.562 2.309-1.76 2.309zm4.47 3.393h1.274v-3.473h.076c.23.417.699 1.146 1.892 1.146 1.586 0 2.736-1.27 2.736-3.388 0-2.122-1.167-3.371-2.748-3.371-1.215 0-1.654.742-1.88 1.147h-.106v-1.061h-1.244v9zm1.248-5.728c0-1.368.597-2.275 1.709-2.275 1.155 0 1.734.976 1.734 2.275 0 1.313-.596 2.314-1.734 2.314-1.095 0-1.709-.937-1.709-2.314z" fill="#385281"/><path d="M159 139h61v-2h-61v2zm61 22h-61v2h61v-2zm-61 0c-6.075 0-11-4.925-11-11h-2c0 7.18 5.82 13 13 13v-2zm72-11c0 6.075-4.925 11-11 11v2c7.18 0 13-5.82 13-13h-2zm-11-11c6.075 0 11 4.925 11 11h2c0-7.18-5.82-13-13-13v2zm-61-2c-7.18 0-13 5.82-13 13h2c0-6.075 4.925-11 11-11v-2z" fill="#4D78C8"/><path d="M236 150h52a8 8 0 008-8v-8a8 8 0 018-8h35.5M188 114v20" stroke="#4D78C8" stroke-width="2" stroke-linecap="round"/><defs><clipPath id="clip0"><path fill="#fff" transform="translate(157 92)" d="M0 0h14v14H0z"/></clipPath></defs></svg>